<svg xmlns="http://www.w3.org/2000/svg" width="150" viewBox="0 0 150 150" height="150" version="1.0"><path d="M 75 78 C 96.503906 78 114 60.503906 114 39 C 114 17.496094 96.503906 0 75 0 C 53.496094 0 36 17.496094 36 39 C 36 60.503906 53.496094 78 75 78 Z M 75 78"/><path d="M 114.265625 83.097656 C 113.1875 82.429688 111.804688 82.519531 110.808594 83.320312 C 100.554688 91.613281 88.171875 96 75 96 C 61.828125 96 49.449219 91.613281 39.195312 83.320312 C 38.207031 82.519531 36.820312 82.429688 35.734375 83.097656 C 13.359375 96.875 0 120.765625 0 147 C 0 148.660156 1.34375 150 3 150 L 147 150 C 148.660156 150 150 148.660156 150 147 C 150 120.765625 136.640625 96.875 114.265625 83.097656 Z M 114.265625 83.097656"/></svg>