<svg xmlns="http://www.w3.org/2000/svg" width="150" viewBox="0 0 150 150" height="150" version="1.0"><path d="M 61.949219 119.78125 C 60.777344 119.78125 59.609375 119.746094 58.4375 119.671875 C 57.269531 119.601562 56.105469 119.496094 54.941406 119.351562 C 53.777344 119.210938 52.621094 119.03125 51.46875 118.816406 C 50.320312 118.601562 49.175781 118.355469 48.039062 118.070312 C 46.902344 117.785156 45.777344 117.46875 44.660156 117.113281 C 43.542969 116.761719 42.4375 116.375 41.34375 115.953125 C 40.25 115.53125 39.171875 115.078125 38.105469 114.589844 C 37.042969 114.101562 35.992188 113.582031 34.960938 113.03125 C 33.925781 112.480469 32.910156 111.894531 31.914062 111.28125 C 30.917969 110.667969 29.9375 110.023438 28.980469 109.347656 C 28.023438 108.675781 27.085938 107.972656 26.171875 107.242188 C 25.257812 106.507812 24.367188 105.75 23.496094 104.964844 C 22.628906 104.175781 21.785156 103.363281 20.96875 102.527344 C 20.148438 101.6875 19.359375 100.824219 18.59375 99.9375 C 17.828125 99.050781 17.089844 98.144531 16.382812 97.210938 C 15.671875 96.277344 14.992188 95.324219 14.339844 94.351562 C 13.691406 93.378906 13.070312 92.386719 12.480469 91.375 C 11.890625 90.363281 11.332031 89.332031 10.804688 88.285156 C 10.277344 87.242188 9.785156 86.179688 9.320312 85.101562 C 8.859375 84.027344 8.433594 82.9375 8.039062 81.832031 C 7.640625 80.730469 7.28125 79.617188 6.957031 78.492188 C 6.628906 77.367188 6.335938 76.234375 6.082031 75.089844 C 5.824219 73.949219 5.601562 72.796875 5.417969 71.640625 C 5.230469 70.484375 5.082031 69.324219 4.964844 68.160156 C 4.851562 66.992188 4.773438 65.824219 4.726562 64.652344 C 4.683594 63.484375 4.679688 62.3125 4.707031 61.140625 C 4.734375 59.972656 4.800781 58.800781 4.902344 57.636719 C 5 56.46875 5.136719 55.304688 5.308594 54.148438 C 5.480469 52.988281 5.6875 51.835938 5.929688 50.691406 C 6.175781 49.542969 6.453125 48.40625 6.765625 47.277344 C 7.078125 46.148438 7.421875 45.03125 7.804688 43.921875 C 8.1875 42.816406 8.601562 41.71875 9.050781 40.636719 C 9.496094 39.554688 9.976562 38.488281 10.492188 37.4375 C 11.007812 36.382812 11.550781 35.347656 12.128906 34.328125 C 12.707031 33.308594 13.316406 32.308594 13.953125 31.328125 C 14.59375 30.347656 15.261719 29.386719 15.960938 28.445312 C 16.65625 27.503906 17.382812 26.585938 18.136719 25.6875 C 18.890625 24.792969 19.671875 23.921875 20.480469 23.074219 C 21.289062 22.226562 22.121094 21.402344 22.980469 20.605469 C 23.839844 19.808594 24.722656 19.039062 25.625 18.296875 C 26.53125 17.554688 27.460938 16.839844 28.410156 16.152344 C 29.359375 15.464844 30.328125 14.8125 31.316406 14.183594 C 32.308594 13.558594 33.316406 12.960938 34.34375 12.398438 C 35.367188 11.832031 36.410156 11.300781 37.46875 10.800781 C 38.53125 10.300781 39.601562 9.832031 40.691406 9.398438 C 41.777344 8.964844 42.878906 8.5625 43.992188 8.195312 C 45.101562 7.828125 46.226562 7.496094 47.359375 7.199219 C 48.492188 6.902344 49.632812 6.636719 50.78125 6.410156 C 51.929688 6.179688 53.085938 5.988281 54.246094 5.832031 C 55.40625 5.675781 56.570312 5.554688 57.738281 5.46875 C 58.90625 5.382812 60.078125 5.332031 61.246094 5.320312 C 62.417969 5.304688 63.589844 5.328125 64.757812 5.386719 C 65.929688 5.441406 67.097656 5.535156 68.261719 5.667969 C 69.425781 5.796875 70.582031 5.960938 71.738281 6.164062 C 72.890625 6.363281 74.039062 6.597656 75.175781 6.871094 C 76.316406 7.140625 77.445312 7.449219 78.566406 7.789062 C 79.6875 8.128906 80.796875 8.503906 81.894531 8.914062 C 82.992188 9.320312 84.078125 9.761719 85.148438 10.238281 C 86.21875 10.714844 87.273438 11.222656 88.3125 11.761719 C 89.351562 12.300781 90.375 12.875 91.378906 13.476562 C 92.382812 14.078125 93.367188 14.710938 94.332031 15.375 C 95.296875 16.039062 96.242188 16.730469 97.164062 17.453125 C 98.085938 18.171875 98.988281 18.921875 99.863281 19.699219 C 100.742188 20.476562 101.59375 21.277344 102.421875 22.105469 C 103.414062 23.101562 104.371094 24.128906 105.289062 25.191406 C 106.210938 26.257812 107.085938 27.351562 107.925781 28.480469 C 108.761719 29.609375 109.558594 30.765625 110.3125 31.953125 C 111.0625 33.140625 111.769531 34.355469 112.433594 35.59375 C 113.097656 36.832031 113.714844 38.09375 114.285156 39.378906 C 114.855469 40.664062 115.375 41.96875 115.847656 43.289062 C 116.324219 44.613281 116.746094 45.953125 117.125 47.308594 C 117.5 48.660156 117.824219 50.027344 118.097656 51.40625 C 118.371094 52.785156 118.597656 54.171875 118.769531 55.566406 C 118.941406 56.960938 119.0625 58.359375 119.128906 59.761719 C 119.199219 61.167969 119.21875 62.570312 119.183594 63.976562 C 119.148438 65.382812 119.0625 66.785156 118.925781 68.183594 C 118.785156 69.582031 118.597656 70.972656 118.359375 72.355469 C 118.117188 73.742188 117.828125 75.117188 117.484375 76.480469 C 117.144531 77.84375 116.753906 79.191406 116.3125 80.527344 C 115.871094 81.859375 115.378906 83.175781 114.84375 84.476562 C 114.304688 85.773438 113.71875 87.050781 113.085938 88.304688 C 112.457031 89.5625 111.777344 90.792969 111.054688 91.996094 C 110.332031 93.203125 109.566406 94.378906 108.757812 95.527344 C 107.945312 96.675781 107.097656 97.792969 106.203125 98.878906 C 105.3125 99.964844 104.382812 101.019531 103.414062 102.035156 C 102.441406 103.054688 101.4375 104.035156 100.394531 104.976562 C 99.355469 105.921875 98.277344 106.824219 97.171875 107.6875 C 96.0625 108.554688 94.921875 109.375 93.753906 110.15625 C 92.585938 110.933594 91.390625 111.671875 90.167969 112.363281 C 88.941406 113.054688 87.695312 113.703125 86.425781 114.300781 C 85.152344 114.902344 83.863281 115.453125 82.550781 115.960938 C 81.238281 116.464844 79.910156 116.921875 78.566406 117.328125 C 77.222656 117.734375 75.863281 118.09375 74.492188 118.398438 C 73.121094 118.707031 71.738281 118.960938 70.347656 119.167969 C 68.957031 119.371094 67.5625 119.527344 66.160156 119.628906 C 64.757812 119.730469 63.355469 119.78125 61.949219 119.78125 Z M 61.949219 17.925781 C 61.097656 17.921875 60.242188 17.945312 59.390625 17.992188 C 58.539062 18.039062 57.691406 18.109375 56.84375 18.207031 C 55.996094 18.300781 55.152344 18.421875 54.308594 18.566406 C 53.46875 18.710938 52.632812 18.878906 51.800781 19.070312 C 50.96875 19.261719 50.144531 19.476562 49.328125 19.714844 C 48.507812 19.957031 47.695312 20.21875 46.890625 20.503906 C 46.089844 20.789062 45.292969 21.097656 44.507812 21.429688 C 43.722656 21.761719 42.945312 22.113281 42.179688 22.492188 C 41.414062 22.867188 40.660156 23.265625 39.914062 23.683594 C 39.171875 24.101562 38.441406 24.542969 37.722656 25.003906 C 37.007812 25.464844 36.300781 25.945312 35.613281 26.445312 C 34.921875 26.949219 34.246094 27.46875 33.585938 28.007812 C 32.925781 28.546875 32.28125 29.105469 31.652344 29.683594 C 31.023438 30.261719 30.410156 30.855469 29.816406 31.46875 C 29.222656 32.078125 28.648438 32.707031 28.089844 33.351562 C 27.53125 33.996094 26.992188 34.65625 26.46875 35.332031 C 25.949219 36.011719 25.449219 36.699219 24.96875 37.40625 C 24.488281 38.109375 24.027344 38.828125 23.585938 39.558594 C 23.148438 40.289062 22.726562 41.03125 22.332031 41.789062 C 21.933594 42.542969 21.558594 43.308594 21.203125 44.085938 C 20.851562 44.863281 20.519531 45.648438 20.210938 46.441406 C 19.90625 47.238281 19.617188 48.042969 19.355469 48.855469 C 19.09375 49.664062 18.855469 50.484375 18.640625 51.308594 C 18.425781 52.136719 18.234375 52.964844 18.066406 53.804688 C 17.898438 54.640625 17.753906 55.480469 17.636719 56.324219 C 17.515625 57.167969 17.421875 58.015625 17.351562 58.867188 C 17.277344 59.71875 17.234375 60.570312 17.210938 61.421875 C 17.1875 62.273438 17.191406 63.128906 17.21875 63.980469 C 17.246094 64.832031 17.296875 65.683594 17.371094 66.535156 C 17.445312 67.382812 17.546875 68.230469 17.671875 69.074219 C 17.792969 69.917969 17.941406 70.757812 18.113281 71.59375 C 18.289062 72.429688 18.484375 73.261719 18.703125 74.085938 C 18.921875 74.910156 19.167969 75.726562 19.433594 76.535156 C 19.699219 77.347656 19.988281 78.148438 20.300781 78.941406 C 20.613281 79.738281 20.949219 80.519531 21.308594 81.296875 C 21.664062 82.070312 22.042969 82.832031 22.445312 83.585938 C 22.847656 84.339844 23.269531 85.078125 23.714844 85.808594 C 24.15625 86.539062 24.621094 87.253906 25.105469 87.953125 C 25.589844 88.65625 26.097656 89.34375 26.621094 90.015625 C 27.144531 90.691406 27.6875 91.347656 28.25 91.988281 C 28.8125 92.632812 29.390625 93.257812 29.988281 93.867188 C 30.585938 94.472656 31.203125 95.066406 31.832031 95.640625 C 32.464844 96.210938 33.113281 96.765625 33.777344 97.304688 C 34.4375 97.839844 35.117188 98.355469 35.808594 98.855469 C 36.503906 99.351562 37.210938 99.828125 37.929688 100.285156 C 38.652344 100.742188 39.382812 101.179688 40.128906 101.59375 C 40.875 102.007812 41.632812 102.402344 42.398438 102.773438 C 43.167969 103.144531 43.945312 103.496094 44.734375 103.820312 C 45.519531 104.148438 46.316406 104.453125 47.125 104.734375 C 47.929688 105.015625 48.742188 105.273438 49.5625 105.507812 C 50.382812 105.742188 51.207031 105.953125 52.039062 106.140625 C 52.875 106.328125 53.710938 106.492188 54.550781 106.632812 C 55.394531 106.773438 56.238281 106.886719 57.085938 106.976562 C 57.933594 107.070312 58.785156 107.136719 59.636719 107.179688 C 60.488281 107.21875 61.34375 107.238281 62.195312 107.230469 C 63.046875 107.226562 63.902344 107.195312 64.75 107.136719 C 65.601562 107.082031 66.453125 107.003906 67.300781 106.898438 C 68.144531 106.792969 68.988281 106.667969 69.828125 106.515625 C 70.667969 106.363281 71.503906 106.183594 72.332031 105.984375 C 73.160156 105.785156 73.984375 105.5625 74.800781 105.3125 C 75.617188 105.066406 76.425781 104.796875 77.226562 104.5 C 78.027344 104.207031 78.820312 103.890625 79.601562 103.550781 C 80.382812 103.214844 81.15625 102.851562 81.917969 102.46875 C 82.679688 102.085938 83.433594 101.679688 84.171875 101.253906 C 84.910156 100.828125 85.636719 100.378906 86.347656 99.910156 C 87.0625 99.445312 87.761719 98.957031 88.445312 98.445312 C 89.132812 97.9375 89.800781 97.410156 90.457031 96.863281 C 91.113281 96.320312 91.75 95.753906 92.375 95.171875 C 92.996094 94.585938 93.601562 93.988281 94.191406 93.367188 C 94.777344 92.75 95.347656 92.117188 95.902344 91.464844 C 96.453125 90.816406 96.984375 90.148438 97.5 89.46875 C 98.011719 88.789062 98.507812 88.09375 98.980469 87.382812 C 99.453125 86.671875 99.90625 85.949219 100.339844 85.214844 C 100.773438 84.480469 101.183594 83.734375 101.574219 82.972656 C 101.964844 82.214844 102.332031 81.445312 102.675781 80.664062 C 103.023438 79.886719 103.34375 79.097656 103.644531 78.296875 C 103.945312 77.5 104.222656 76.691406 104.476562 75.878906 C 104.730469 75.0625 104.960938 74.242188 105.167969 73.414062 C 105.375 72.585938 105.558594 71.753906 105.71875 70.917969 C 105.878906 70.078125 106.011719 69.234375 106.125 68.390625 C 106.234375 67.542969 106.320312 66.695312 106.382812 65.84375 C 106.445312 64.996094 106.484375 64.140625 106.496094 63.289062 C 106.511719 62.4375 106.5 61.582031 106.464844 60.730469 C 106.429688 59.878906 106.371094 59.027344 106.285156 58.179688 C 106.203125 57.328125 106.09375 56.484375 105.960938 55.640625 C 105.828125 54.796875 105.671875 53.960938 105.492188 53.125 C 105.3125 52.292969 105.105469 51.464844 104.878906 50.644531 C 104.652344 49.820312 104.398438 49.003906 104.125 48.199219 C 103.851562 47.390625 103.550781 46.589844 103.230469 45.800781 C 102.910156 45.007812 102.566406 44.230469 102.203125 43.457031 C 101.835938 42.6875 101.449219 41.925781 101.042969 41.179688 C 100.632812 40.429688 100.203125 39.691406 99.75 38.96875 C 99.300781 38.246094 98.828125 37.535156 98.335938 36.835938 C 97.84375 36.140625 97.335938 35.457031 96.804688 34.789062 C 96.273438 34.121094 95.722656 33.46875 95.15625 32.832031 C 94.585938 32.195312 94 31.578125 93.394531 30.976562 C 91.332031 28.910156 89.085938 27.0625 86.65625 25.441406 C 84.230469 23.816406 81.667969 22.445312 78.96875 21.324219 C 76.273438 20.207031 73.492188 19.359375 70.625 18.789062 C 67.761719 18.214844 64.871094 17.925781 61.949219 17.925781 Z M 61.949219 17.925781"/><path d="M 143.082031 150 C 142.25 149.996094 141.449219 149.835938 140.679688 149.511719 C 139.914062 149.191406 139.234375 148.734375 138.648438 148.144531 L 93.523438 103.050781 C 93.230469 102.757812 92.96875 102.441406 92.738281 102.097656 C 92.511719 101.753906 92.316406 101.390625 92.15625 101.007812 C 92 100.628906 91.878906 100.234375 91.800781 99.828125 C 91.71875 99.421875 91.679688 99.015625 91.679688 98.601562 C 91.679688 98.1875 91.71875 97.777344 91.800781 97.371094 C 91.878906 96.96875 92 96.574219 92.15625 96.191406 C 92.316406 95.8125 92.511719 95.449219 92.738281 95.105469 C 92.96875 94.761719 93.230469 94.441406 93.523438 94.152344 C 93.8125 93.859375 94.132812 93.597656 94.476562 93.367188 C 94.820312 93.140625 95.183594 92.945312 95.5625 92.785156 C 95.945312 92.628906 96.339844 92.507812 96.742188 92.429688 C 97.148438 92.347656 97.558594 92.308594 97.972656 92.308594 C 98.386719 92.308594 98.792969 92.347656 99.199219 92.429688 C 99.605469 92.507812 100 92.628906 100.378906 92.785156 C 100.761719 92.945312 101.125 93.140625 101.46875 93.367188 C 101.8125 93.597656 102.128906 93.859375 102.421875 94.152344 L 147.515625 139.277344 C 147.953125 139.714844 148.316406 140.210938 148.609375 140.757812 C 148.898438 141.304688 149.105469 141.882812 149.226562 142.492188 C 149.34375 143.097656 149.375 143.710938 149.3125 144.328125 C 149.253906 144.945312 149.105469 145.539062 148.867188 146.113281 C 148.628906 146.6875 148.316406 147.214844 147.921875 147.691406 C 147.53125 148.171875 147.078125 148.585938 146.5625 148.933594 C 146.046875 149.277344 145.492188 149.542969 144.902344 149.722656 C 144.308594 149.90625 143.703125 149.996094 143.082031 150 Z M 143.082031 150"/></svg>